<svg id="Capa_1" enable-background="new 0 0 497.002 497.002" height="512" viewBox="0 0 497.002 497.002" width="512" xmlns="http://www.w3.org/2000/svg"><g><path d="m140.103 437.645 15.838-15.838c4.668-4.668 12.237-4.668 16.906 0l10.49 10.49c4.668 4.668 12.237 4.668 16.906 0l11.742-11.742c4.668-4.668 4.668-12.237 0-16.906l-52.321-52.321-54.864 40.025-34.986 49.824 52.321 52.321c4.668 4.668 12.237 4.668 16.906 0l11.552-11.552c4.668-4.668 4.668-12.237 0-16.906l-10.49-10.49c-4.668-4.668-4.668-12.237 0-16.905z" fill="#f4dbb3"/><path d="m211.981 420.559-11.74 11.74c-4.67 4.67-12.24 4.67-16.9 0l-10.49-10.49c-4.67-4.67-12.24-4.67-16.91 0l-15.84 15.84c-4.67 4.66-4.67 12.23 0 16.9l10.49 10.49c4.67 4.67 4.67 12.24 0 16.91l-11.55 11.55c-4.67 4.67-12.24 4.67-16.91 0l-11.07-11.07c3.67.6 7.55-.51 10.38-3.34l14.15-12.14c4.67-4.67 4.67-12.24 0-16.91l-10.49-10.49c-4.67-4.67-4.67-12.24 0-16.91l15.84-15.83c4.67-4.67 12.24-4.67 16.91 0l10.49 10.49c4.66 4.67 12.23 4.67 16.9 0l11.74-11.75c4.67-4.66 4.67-12.23 0-16.9l15 15c4.67 4.67 4.67 12.24 0 16.91z" fill="#eac89f"/><path d="m43.809 450.607-20.45-20.45c-4.577-4.577-4.577-11.999 0-16.576l304.73-304.73 37.026 37.026-304.73 304.73c-4.578 4.577-11.999 4.577-16.576 0z" fill="#ffd15b"/><path d="m350.114 130.876-304.73 304.73c-4.577 4.577-11.999 4.577-16.576 0l15.001 15.001c4.577 4.577 11.999 4.577 16.576 0l304.73-304.73z" fill="#ffc344"/><path d="m296.842 212.59-35.467-35.467c-4.191-4.191-4.191-10.987 0-15.178l59.904-59.904 50.645 50.645-59.904 59.904c-4.191 4.192-10.986 4.192-15.178 0z" fill="#f4dbb3"/><g><path d="m371.921 152.689-59.9 59.9c-4.19 4.19-10.99 4.19-15.18 0l-15-15c4.19 4.19 10.99 4.19 15.18 0l59.9-59.9z" fill="#eac89f"/></g><path d="m462.251 21.299c-23.57-27.24-64.82-28.35-89.84-3.34-.08.09-.16.17-.24.25-8.7 8.8-21.33 12.11-33.27 8.85-21.11-5.77-44.7-.06-60.89 17.14-21.55 22.88-22.16 59.01-1.34 82.56 13.19 14.91 31.75 21.78 49.89 20.65-1.14 18.15 5.74 36.71 20.67 49.9 23.19 20.49 58.64 20.27 81.59-.48 17.05-15.41 23.34-37.93 18.87-58.58-2.53-11.7 1.08-23.83 9.84-31.99 1.73-1.6 3.38-3.33 4.96-5.17 19.53-22.85 19.44-57.06-.24-79.79zm-92.99 106.74c-12.89 0-23.33-10.45-23.33-23.33 0-12.89 10.44-23.34 23.33-23.34 3.7 0 7.21.86 10.32 2.41 2.3 1.13 6.867.738 8.661 2.533s.814 5.777 1.949 8.077c1.54 3.11 2.4 6.61 2.4 10.32 0 12.88-10.44 23.33-23.33 23.33z" fill="#ffd15b"/><g fill="#ffc344"><path d="m462.253 21.298c-3.405-3.935-7.188-7.306-11.229-10.151 15.815 22.54 14.656 53.66-3.537 74.943-1.574 1.842-3.229 3.565-4.954 5.169-8.768 8.156-12.378 20.284-9.844 31.987 4.472 20.655-1.815 43.169-18.869 58.584-21.272 19.227-53.274 20.807-76.305 4.631 2.733 3.894 5.971 7.541 9.716 10.85 23.187 20.482 58.637 20.265 81.589-.48 17.055-15.415 23.341-37.93 18.869-58.584-2.534-11.703 1.077-23.832 9.844-31.987 1.725-1.604 3.38-3.328 4.954-5.169 19.538-22.854 19.442-57.058-.234-79.793z"/><path d="m347.064 111.901c-.734-2.267-1.136-4.684-1.136-7.196 0-12.886 10.446-23.333 23.333-23.333 2.512 0 4.929.402 7.196 1.136-3.034-9.364-11.822-16.137-22.197-16.137-12.886 0-23.333 10.446-23.333 23.333 0 10.375 6.773 19.163 16.137 22.197z"/></g><g><path d="m428.661 55.909-38.47 38.48c-2.27-4.6-6.01-8.35-10.61-10.61l38.47-38.47c2.93-2.93 7.68-2.93 10.61 0s2.93 7.67 0 10.6z" fill="#c3aff0"/></g><g><g><path d="m91.725 213.751c-.882 0-1.778-.157-2.652-.487l-21.912-8.289c-3.874-1.465-5.827-5.794-4.361-9.668 1.465-3.874 5.792-5.828 9.668-4.361l21.912 8.289c3.874 1.465 5.827 5.794 4.361 9.668-1.134 3.001-3.987 4.848-7.016 4.848z" fill="#dbeaff"/></g><g><path d="m122.4 172.16c-1.949 0-3.897-.755-5.367-2.26l-17.042-17.452c-2.894-2.963-2.837-7.712.126-10.606s7.711-2.837 10.606.126l17.042 17.452c2.894 2.963 2.837 7.712-.126 10.606-1.458 1.424-3.349 2.134-5.239 2.134z" fill="#dbeaff"/></g><g><path d="m165.498 146.488c-3.324 0-6.361-2.226-7.248-5.59l-6.065-23.015c-1.056-4.005 1.336-8.108 5.341-9.164 4.004-1.058 8.108 1.335 9.164 5.341l6.065 23.014c1.056 4.005-1.336 8.108-5.341 9.164-.64.169-1.283.25-1.916.25z" fill="#dbeaff"/></g></g></g></svg>