<?xml version="1.0" standalone="no"?>
<!DOCTYPE svg PUBLIC "-//W3C//DTD SVG 20010904//EN"
 "http://www.w3.org/TR/2001/REC-SVG-20010904/DTD/svg10.dtd">
<svg version="1.0" xmlns="http://www.w3.org/2000/svg"
 width="50" height="100" viewBox="0 0 512.000000 512.000000"
 preserveAspectRatio="xMidYMid meet">
<metadata>
Created by potrace 1.16, written by Peter Selinger 2001-2019
</metadata>
<g transform="translate(0.000000,512.000000) scale(0.100000,-0.100000)"
fill="#000000" stroke="none">
<path d="M2270 5103 c-883 -135 -1553 -835 -1649 -1725 -82 -752 315 -1624
1210 -2653 153 -177 703 -725 727 -725 21 0 490 470 648 650 733 834 1154
1563 1276 2209 31 163 31 482 0 651 -153 840 -805 1472 -1643 1594 -135 20
-438 20 -569 -1z m495 -448 c237 -36 459 -128 651 -271 91 -67 236 -217 305
-313 117 -164 209 -382 246 -581 26 -141 23 -382 -6 -520 -12 -58 -33 -139
-47 -180 -35 -105 -125 -282 -185 -363 l-50 -68 -41 41 c-60 60 -95 74 -263
110 -83 17 -181 38 -218 47 l-69 15 -39 81 c-21 45 -43 85 -48 90 -6 6 8 35
33 72 23 35 62 106 87 159 24 53 49 96 54 96 6 0 31 16 57 35 69 51 101 118
102 215 1 65 -3 81 -27 123 -15 26 -32 47 -37 47 -15 0 -12 82 5 146 54 208
12 410 -110 529 -96 94 -245 153 -357 141 -32 -3 -58 -3 -58 0 0 3 7 18 15 34
l16 30 -35 0 c-22 0 -45 -9 -62 -23 l-26 -23 -57 19 c-47 16 -75 18 -176 14
-185 -7 -300 -58 -411 -181 -63 -69 -133 -203 -159 -306 -23 -90 -30 -262 -13
-325 12 -47 12 -51 -10 -74 -58 -63 -64 -197 -11 -289 25 -45 101 -112 126
-112 4 0 30 -46 56 -103 26 -56 65 -127 85 -157 l37 -55 -48 -91 -47 -92 -68
-15 c-37 -9 -134 -30 -217 -47 -168 -36 -203 -51 -262 -110 l-42 -41 -39 53
c-184 248 -287 599 -268 908 23 355 170 682 420 930 102 101 173 156 286 224
272 161 611 228 925 181z m163 -881 c99 -49 222 -231 222 -327 0 -38 3 -44 18
-40 49 13 75 -95 38 -165 -18 -35 -65 -69 -106 -78 -20 -5 -30 -19 -52 -77
-49 -127 -117 -236 -203 -323 -108 -109 -168 -139 -285 -139 -76 0 -93 4 -150
32 -75 37 -161 116 -221 204 -43 64 -123 224 -134 271 -5 20 -15 28 -41 32
-97 19 -159 172 -94 231 11 10 26 15 35 12 13 -5 15 6 15 76 0 131 46 199 154
228 66 18 216 5 339 -30 128 -37 210 -40 266 -12 41 22 95 78 106 110 8 28 30
26 93 -5z m-561 -1241 c62 -35 115 -68 118 -73 3 -5 -7 -33 -21 -63 l-27 -54
-157 91 -158 91 30 58 29 58 37 -21 c20 -13 88 -51 149 -87z m602 49 l29 -57
-158 -91 -158 -91 -28 60 c-16 33 -25 62 -19 64 6 2 75 41 155 88 80 47 146
85 147 85 2 0 16 -26 32 -58z m-730 -246 c148 -86 209 -116 229 -114 22 2 33
15 59 66 l32 62 33 -62 c27 -51 38 -64 60 -66 20 -2 79 27 218 108 106 61 201
116 213 121 16 7 72 -1 217 -31 205 -43 247 -60 288 -118 l21 -29 -47 -45
c-167 -160 -354 -273 -566 -343 -277 -92 -595 -92 -874 1 -213 70 -431 204
-575 352 l-38 39 26 31 c14 17 41 40 59 51 34 22 385 102 422 97 11 -1 112
-55 223 -120z"/>
</g>
</svg>
